<?xml version="1.0" encoding="utf-8"?>
<!-- Generator: Adobe Illustrator 26.5.0, SVG Export Plug-In . SVG Version: 6.00 Build 0)  -->
<svg version="1.1" id="Camada_1" xmlns="http://www.w3.org/2000/svg" xmlns:xlink="http://www.w3.org/1999/xlink" x="0px" y="0px"
	 viewBox="70 70 110 187" style="enable-background:new 0 0 250.72 328.54;" xml:space="preserve">
<style type="text/css">
	.st0{fill:#C59C57;}
	.st1{fill:#FFFFFF;}
	.st2{fill:#A1A1A1;}
</style>
<g>
	<path class="st0" d="M82.2,256.18l-1.13-2.48c-0.43-0.96-10.61-23.72-9.36-52.79c0.73-17.12,5.33-32.81,13.65-46.64
		c4.69-7.8,10.58-15,17.62-21.58c-2.84-4.58-5.18-9.42-7.02-14.48c-7.92-21.81-3.72-40.08-3.54-40.85l1.19-5.01l1.97,4.76
		c9.09,22,39.11,34.32,39.41,34.44l3.39,1.37l-3.25,1.66c-10.64,5.43-19.93,11.67-27.82,18.67c3.93,5.86,8.74,11.28,14.38,16.2
		c13.17,11.49,30.98,20.32,52.94,26.26l4.46,1.21l-4.21,1.91c-0.49,0.22-49.44,22.88-91,75.2L82.2,256.18z M104.83,135.53
		c-6.61,6.24-12.14,13.04-16.57,20.39c-8.04,13.33-12.48,28.47-13.21,45.01c-1,22.81,5.43,42.09,8.02,48.83
		c34.81-42.92,74.2-65.56,86.54-72c-20.61-6.06-37.48-14.75-50.2-25.87C113.72,146.91,108.85,141.44,104.83,135.53z M94.9,83.26
		c-0.7,6.83-0.95,19.73,4.26,33.97c1.68,4.6,3.8,9,6.35,13.18c7.24-6.36,15.6-12.11,25.05-17.19C123,109.66,104.14,99.52,94.9,83.26
		z"/>
</g>
</svg>
